# xmcd CD database file
#
# Track frame offsets:
#	183
#	14488
#	27008
#	41273
#	54650
#	67948
#	82415
#	95160
#	109235
#	122528
#	135855
#	150625
#	163515
#	177260
#	190618
#	204300
#	217100
#	230480
#	244253
#	256953
#	271125
#	284010
#	299520
#
# Disc length: 4159 seconds
#
# Revision: 1
# Processed by: cddbd v1.5.1PL0 Copyright (c) Steve Scherf et al.
# Submitted via: CDex 1.40Release
#
DISCID=4d103d17
DTITLE=Clifford Gibson - Complete Recorded Works 1929-1931
DYEAR=1991
DGENRE=Blues
TTITLE0=Beat You Doing It
TTITLE1=Whiskey Moan Blues
TTITLE2=Tired Of Being Mistreated, Pt. 1
TTITLE3=Tired Of Being Mistreated, Pt. 2
TTITLE4=Stop Your Rambling
TTITLE5=Sunshine Moan
TTITLE6=Ice And Snow Blues
TTITLE7=Don't Put That Thing On Me
TTITLE8=Drayman Blues
TTITLE9=Old Time Rider
TTITLE10=Bad Luck Dice
TTITLE11=Levee Camp Moan
TTITLE12=Hard-headed Blues
TTITLE13=Blues Without A Dime
TTITLE14=Keep Your Windows Pinned
TTITLE15=Jive For Me Blues
TTITLE16=Brooklyn Blues
TTITLE17=Society Blues
TTITLE18=She Rolls It Slow
TTITLE19=Railroad Man Blues
TTITLE20=She's Got The Jordan River In Her Hips (R.T. Hanen Vcl)
TTITLE21=Happy Days Blues (R.T. Hanen Vcl)
TTITLE22=Let Me Be Your Sidetrack (J. Rogers Vcl)
EXTD=YEAR: 1991 ID3G: 0
EXTT0=
EXTT1=
EXTT2=
EXTT3=
EXTT4=
EXTT5=
EXTT6=
EXTT7=
EXTT8=
EXTT9=
EXTT10=
EXTT11=
EXTT12=
EXTT13=
EXTT14=
EXTT15=
EXTT16=
EXTT17=
EXTT18=
EXTT19=
EXTT20=
EXTT21=
EXTT22=
PLAYORDER=
